<mxfile host="app.diagrams.net" agent="Mozilla/5.0 (Windows NT 10.0; Win64; x64) AppleWebKit/537.36 (KHTML, like Gecko) Chrome/135.0.0.0 Safari/537.36" version="26.2.14">
  <diagram name="Patron1" id="-QUyp3NRW04CJntgeqOS">
    <mxGraphModel dx="1724" dy="358" grid="1" gridSize="10" guides="1" tooltips="1" connect="1" arrows="1" fold="1" page="1" pageScale="1" pageWidth="827" pageHeight="1169" math="0" shadow="0">
      <root>
        <mxCell id="xHhiAaH-M5aRm_jPoFrB-0" />
        <mxCell id="xHhiAaH-M5aRm_jPoFrB-1" parent="xHhiAaH-M5aRm_jPoFrB-0" />
        <mxCell id="xHhiAaH-M5aRm_jPoFrB-14" value="&lt;&lt;abstract&gt;&gt;&#xa;Notificacion&#xa;" style="swimlane;fontStyle=3;align=center;verticalAlign=top;childLayout=stackLayout;horizontal=1;startSize=50;horizontalStack=0;resizeParent=1;resizeLast=0;collapsible=1;marginBottom=0;rounded=0;shadow=0;strokeWidth=1;" parent="xHhiAaH-M5aRm_jPoFrB-1" vertex="1">
          <mxGeometry x="-210" y="40" width="210" height="180" as="geometry">
            <mxRectangle x="550" y="140" width="160" height="26" as="alternateBounds" />
          </mxGeometry>
        </mxCell>
        <mxCell id="xHhiAaH-M5aRm_jPoFrB-15" value="-sender: NotificacionSender&#xa;-destinatario: String&#xa;-metadatos:Map" style="text;align=left;verticalAlign=top;spacingLeft=4;spacingRight=4;overflow=hidden;rotatable=0;points=[[0,0.5],[1,0.5]];portConstraint=eastwest;rounded=0;shadow=0;html=0;" parent="xHhiAaH-M5aRm_jPoFrB-14" vertex="1">
          <mxGeometry y="50" width="210" height="50" as="geometry" />
        </mxCell>
        <mxCell id="xHhiAaH-M5aRm_jPoFrB-17" value="" style="line;html=1;strokeWidth=1;align=left;verticalAlign=middle;spacingTop=-1;spacingLeft=3;spacingRight=3;rotatable=0;labelPosition=right;points=[];portConstraint=eastwest;" parent="xHhiAaH-M5aRm_jPoFrB-14" vertex="1">
          <mxGeometry y="100" width="210" height="10" as="geometry" />
        </mxCell>
        <mxCell id="xHhiAaH-M5aRm_jPoFrB-18" value="+agregarMetadato(clave, valor):&#xa;+enviar():&#xa;cambiarSender(NotificacionSender: &#xa;nuevoSender)" style="text;align=left;verticalAlign=top;spacingLeft=4;spacingRight=4;overflow=hidden;rotatable=0;points=[[0,0.5],[1,0.5]];portConstraint=eastwest;" parent="xHhiAaH-M5aRm_jPoFrB-14" vertex="1">
          <mxGeometry y="110" width="210" height="60" as="geometry" />
        </mxCell>
        <mxCell id="yhTaDA7iFlD8edd2L2kn-23" value="" style="group" parent="xHhiAaH-M5aRm_jPoFrB-1" connectable="0" vertex="1">
          <mxGeometry x="-470" y="470" width="740" height="360" as="geometry" />
        </mxCell>
        <mxCell id="yhTaDA7iFlD8edd2L2kn-0" value="&lt;&lt;Interface&gt;&gt;&#xa;NotificacionSender&#xa;" style="swimlane;fontStyle=1;align=center;verticalAlign=top;childLayout=stackLayout;horizontal=1;startSize=50;horizontalStack=0;resizeParent=1;resizeLast=0;collapsible=1;marginBottom=0;rounded=0;shadow=0;strokeWidth=1;" parent="yhTaDA7iFlD8edd2L2kn-23" vertex="1">
          <mxGeometry x="250" width="240" height="120" as="geometry">
            <mxRectangle x="550" y="140" width="160" height="26" as="alternateBounds" />
          </mxGeometry>
        </mxCell>
        <mxCell id="yhTaDA7iFlD8edd2L2kn-3" value="" style="line;html=1;strokeWidth=1;align=left;verticalAlign=middle;spacingTop=-1;spacingLeft=3;spacingRight=3;rotatable=0;labelPosition=right;points=[];portConstraint=eastwest;" parent="yhTaDA7iFlD8edd2L2kn-0" vertex="1">
          <mxGeometry y="50" width="240" height="8" as="geometry" />
        </mxCell>
        <mxCell id="yhTaDA7iFlD8edd2L2kn-4" value="+enviar(String titulo, String destinatario,&#xa;Map&lt;String, Object&gt; metadatos):&#xa;+getNombreCanal():" style="text;align=left;verticalAlign=top;spacingLeft=4;spacingRight=4;overflow=hidden;rotatable=0;points=[[0,0.5],[1,0.5]];portConstraint=eastwest;" parent="yhTaDA7iFlD8edd2L2kn-0" vertex="1">
          <mxGeometry y="58" width="240" height="52" as="geometry" />
        </mxCell>
        <mxCell id="yhTaDA7iFlD8edd2L2kn-18" style="edgeStyle=orthogonalEdgeStyle;rounded=0;orthogonalLoop=1;jettySize=auto;html=1;entryX=0.5;entryY=1;entryDx=0;entryDy=0;strokeWidth=2;endArrow=block;endFill=0;dashed=1;" parent="yhTaDA7iFlD8edd2L2kn-23" source="yhTaDA7iFlD8edd2L2kn-5" target="yhTaDA7iFlD8edd2L2kn-0" edge="1">
          <mxGeometry relative="1" as="geometry">
            <Array as="points">
              <mxPoint x="85" y="200" />
              <mxPoint x="370" y="200" />
            </Array>
          </mxGeometry>
        </mxCell>
        <mxCell id="yhTaDA7iFlD8edd2L2kn-5" value="&lt;&lt;Class&gt;&gt;&#xa;EmailSender&#xa;" style="swimlane;fontStyle=1;align=center;verticalAlign=top;childLayout=stackLayout;horizontal=1;startSize=50;horizontalStack=0;resizeParent=1;resizeLast=0;collapsible=1;marginBottom=0;rounded=0;shadow=0;strokeWidth=1;" parent="yhTaDA7iFlD8edd2L2kn-23" vertex="1">
          <mxGeometry y="240" width="170" height="120" as="geometry">
            <mxRectangle x="550" y="140" width="160" height="26" as="alternateBounds" />
          </mxGeometry>
        </mxCell>
        <mxCell id="yhTaDA7iFlD8edd2L2kn-6" value="" style="line;html=1;strokeWidth=1;align=left;verticalAlign=middle;spacingTop=-1;spacingLeft=3;spacingRight=3;rotatable=0;labelPosition=right;points=[];portConstraint=eastwest;" parent="yhTaDA7iFlD8edd2L2kn-5" vertex="1">
          <mxGeometry y="50" width="170" height="8" as="geometry" />
        </mxCell>
        <mxCell id="yhTaDA7iFlD8edd2L2kn-7" value="+enviar(titulo, mensaje, &#xa;destinatario,metadatos):&#xa;+getNombreCanal():" style="text;align=left;verticalAlign=top;spacingLeft=4;spacingRight=4;overflow=hidden;rotatable=0;points=[[0,0.5],[1,0.5]];portConstraint=eastwest;" parent="yhTaDA7iFlD8edd2L2kn-5" vertex="1">
          <mxGeometry y="58" width="170" height="62" as="geometry" />
        </mxCell>
        <mxCell id="yhTaDA7iFlD8edd2L2kn-22" style="rounded=0;orthogonalLoop=1;jettySize=auto;html=1;strokeWidth=2;endArrow=block;endFill=0;dashed=1;edgeStyle=elbowEdgeStyle;elbow=vertical;" parent="yhTaDA7iFlD8edd2L2kn-23" edge="1">
          <mxGeometry relative="1" as="geometry">
            <mxPoint x="370" y="120" as="targetPoint" />
            <mxPoint x="270" y="240" as="sourcePoint" />
            <Array as="points">
              <mxPoint x="320" y="200" />
            </Array>
          </mxGeometry>
        </mxCell>
        <mxCell id="yhTaDA7iFlD8edd2L2kn-8" value="&lt;&lt;Class&gt;&gt;&#xa;SMSSender" style="swimlane;fontStyle=1;align=center;verticalAlign=top;childLayout=stackLayout;horizontal=1;startSize=50;horizontalStack=0;resizeParent=1;resizeLast=0;collapsible=1;marginBottom=0;rounded=0;shadow=0;strokeWidth=1;" parent="yhTaDA7iFlD8edd2L2kn-23" vertex="1">
          <mxGeometry x="190" y="240" width="170" height="120" as="geometry">
            <mxRectangle x="550" y="140" width="160" height="26" as="alternateBounds" />
          </mxGeometry>
        </mxCell>
        <mxCell id="yhTaDA7iFlD8edd2L2kn-9" value="" style="line;html=1;strokeWidth=1;align=left;verticalAlign=middle;spacingTop=-1;spacingLeft=3;spacingRight=3;rotatable=0;labelPosition=right;points=[];portConstraint=eastwest;" parent="yhTaDA7iFlD8edd2L2kn-8" vertex="1">
          <mxGeometry y="50" width="170" height="8" as="geometry" />
        </mxCell>
        <mxCell id="yhTaDA7iFlD8edd2L2kn-10" value="+enviar(titulo, mensaje, &#xa;destinatario,metadatos):&#xa;+getNombreCanal():" style="text;align=left;verticalAlign=top;spacingLeft=4;spacingRight=4;overflow=hidden;rotatable=0;points=[[0,0.5],[1,0.5]];portConstraint=eastwest;" parent="yhTaDA7iFlD8edd2L2kn-8" vertex="1">
          <mxGeometry y="58" width="170" height="62" as="geometry" />
        </mxCell>
        <mxCell id="yhTaDA7iFlD8edd2L2kn-21" style="edgeStyle=orthogonalEdgeStyle;rounded=0;orthogonalLoop=1;jettySize=auto;html=1;endArrow=block;endFill=0;strokeWidth=2;dashed=1;" parent="yhTaDA7iFlD8edd2L2kn-23" source="yhTaDA7iFlD8edd2L2kn-11" edge="1">
          <mxGeometry relative="1" as="geometry">
            <mxPoint x="370" y="120" as="targetPoint" />
            <Array as="points">
              <mxPoint x="465" y="200" />
              <mxPoint x="370" y="200" />
              <mxPoint x="370" y="180" />
              <mxPoint x="371" y="180" />
              <mxPoint x="371" y="140" />
              <mxPoint x="370" y="140" />
            </Array>
          </mxGeometry>
        </mxCell>
        <mxCell id="yhTaDA7iFlD8edd2L2kn-11" value="&lt;&lt;Class&gt;&gt;&#xa;PushSender&#xa;" style="swimlane;fontStyle=1;align=center;verticalAlign=top;childLayout=stackLayout;horizontal=1;startSize=50;horizontalStack=0;resizeParent=1;resizeLast=0;collapsible=1;marginBottom=0;rounded=0;shadow=0;strokeWidth=1;" parent="yhTaDA7iFlD8edd2L2kn-23" vertex="1">
          <mxGeometry x="380" y="240" width="170" height="120" as="geometry">
            <mxRectangle x="550" y="140" width="160" height="26" as="alternateBounds" />
          </mxGeometry>
        </mxCell>
        <mxCell id="yhTaDA7iFlD8edd2L2kn-12" value="" style="line;html=1;strokeWidth=1;align=left;verticalAlign=middle;spacingTop=-1;spacingLeft=3;spacingRight=3;rotatable=0;labelPosition=right;points=[];portConstraint=eastwest;" parent="yhTaDA7iFlD8edd2L2kn-11" vertex="1">
          <mxGeometry y="50" width="170" height="8" as="geometry" />
        </mxCell>
        <mxCell id="yhTaDA7iFlD8edd2L2kn-13" value="+enviar(titulo, mensaje, &#xa;destinatario,metadatos):&#xa;+getNombreCanal():" style="text;align=left;verticalAlign=top;spacingLeft=4;spacingRight=4;overflow=hidden;rotatable=0;points=[[0,0.5],[1,0.5]];portConstraint=eastwest;" parent="yhTaDA7iFlD8edd2L2kn-11" vertex="1">
          <mxGeometry y="58" width="170" height="62" as="geometry" />
        </mxCell>
        <mxCell id="yhTaDA7iFlD8edd2L2kn-19" style="edgeStyle=orthogonalEdgeStyle;rounded=0;orthogonalLoop=1;jettySize=auto;html=1;entryX=0.5;entryY=1;entryDx=0;entryDy=0;strokeWidth=2;endArrow=block;endFill=0;dashed=1;" parent="yhTaDA7iFlD8edd2L2kn-23" source="yhTaDA7iFlD8edd2L2kn-14" target="yhTaDA7iFlD8edd2L2kn-0" edge="1">
          <mxGeometry relative="1" as="geometry">
            <Array as="points">
              <mxPoint x="655" y="200" />
              <mxPoint x="370" y="200" />
            </Array>
          </mxGeometry>
        </mxCell>
        <mxCell id="yhTaDA7iFlD8edd2L2kn-14" value="&lt;&lt;Class&gt;&gt;&#xa;SlackSender&#xa;" style="swimlane;fontStyle=1;align=center;verticalAlign=top;childLayout=stackLayout;horizontal=1;startSize=50;horizontalStack=0;resizeParent=1;resizeLast=0;collapsible=1;marginBottom=0;rounded=0;shadow=0;strokeWidth=1;" parent="yhTaDA7iFlD8edd2L2kn-23" vertex="1">
          <mxGeometry x="570" y="240" width="170" height="120" as="geometry">
            <mxRectangle x="550" y="140" width="160" height="26" as="alternateBounds" />
          </mxGeometry>
        </mxCell>
        <mxCell id="yhTaDA7iFlD8edd2L2kn-15" value="" style="line;html=1;strokeWidth=1;align=left;verticalAlign=middle;spacingTop=-1;spacingLeft=3;spacingRight=3;rotatable=0;labelPosition=right;points=[];portConstraint=eastwest;" parent="yhTaDA7iFlD8edd2L2kn-14" vertex="1">
          <mxGeometry y="50" width="170" height="8" as="geometry" />
        </mxCell>
        <mxCell id="yhTaDA7iFlD8edd2L2kn-16" value="+enviar(titulo, mensaje, &#xa;destinatario,metadatos):&#xa;+getNombreCanal():" style="text;align=left;verticalAlign=top;spacingLeft=4;spacingRight=4;overflow=hidden;rotatable=0;points=[[0,0.5],[1,0.5]];portConstraint=eastwest;" parent="yhTaDA7iFlD8edd2L2kn-14" vertex="1">
          <mxGeometry y="58" width="170" height="62" as="geometry" />
        </mxCell>
        <mxCell id="yhTaDA7iFlD8edd2L2kn-52" style="edgeStyle=orthogonalEdgeStyle;rounded=0;orthogonalLoop=1;jettySize=auto;html=1;entryX=0.5;entryY=1;entryDx=0;entryDy=0;endArrow=block;endFill=0;strokeWidth=2;" parent="xHhiAaH-M5aRm_jPoFrB-1" source="yhTaDA7iFlD8edd2L2kn-29" target="xHhiAaH-M5aRm_jPoFrB-14" edge="1">
          <mxGeometry relative="1" as="geometry">
            <Array as="points">
              <mxPoint x="-380" y="250" />
              <mxPoint x="-105" y="250" />
            </Array>
          </mxGeometry>
        </mxCell>
        <mxCell id="yhTaDA7iFlD8edd2L2kn-29" value="&lt;&lt;Class&gt;&gt;&#xa;NotificacionEmergencia&#xa;" style="swimlane;fontStyle=1;align=center;verticalAlign=top;childLayout=stackLayout;horizontal=1;startSize=50;horizontalStack=0;resizeParent=1;resizeLast=0;collapsible=1;marginBottom=0;rounded=0;shadow=0;strokeWidth=1;" parent="xHhiAaH-M5aRm_jPoFrB-1" vertex="1">
          <mxGeometry x="-460" y="280" width="160" height="140" as="geometry">
            <mxRectangle x="550" y="140" width="160" height="26" as="alternateBounds" />
          </mxGeometry>
        </mxCell>
        <mxCell id="yhTaDA7iFlD8edd2L2kn-30" value="-alerta: String&#xa;-nivelSeveridad:int" style="text;align=left;verticalAlign=top;spacingLeft=4;spacingRight=4;overflow=hidden;rotatable=0;points=[[0,0.5],[1,0.5]];portConstraint=eastwest;rounded=0;shadow=0;html=0;" parent="yhTaDA7iFlD8edd2L2kn-29" vertex="1">
          <mxGeometry y="50" width="160" height="40" as="geometry" />
        </mxCell>
        <mxCell id="yhTaDA7iFlD8edd2L2kn-31" value="" style="line;html=1;strokeWidth=1;align=left;verticalAlign=middle;spacingTop=-1;spacingLeft=3;spacingRight=3;rotatable=0;labelPosition=right;points=[];portConstraint=eastwest;" parent="yhTaDA7iFlD8edd2L2kn-29" vertex="1">
          <mxGeometry y="90" width="160" height="10" as="geometry" />
        </mxCell>
        <mxCell id="yhTaDA7iFlD8edd2L2kn-32" value="+enviarImplementacion():&#xa;" style="text;align=left;verticalAlign=top;spacingLeft=4;spacingRight=4;overflow=hidden;rotatable=0;points=[[0,0.5],[1,0.5]];portConstraint=eastwest;" parent="yhTaDA7iFlD8edd2L2kn-29" vertex="1">
          <mxGeometry y="100" width="160" height="40" as="geometry" />
        </mxCell>
        <mxCell id="yhTaDA7iFlD8edd2L2kn-49" style="edgeStyle=orthogonalEdgeStyle;rounded=0;orthogonalLoop=1;jettySize=auto;html=1;exitX=0.5;exitY=0;exitDx=0;exitDy=0;entryX=0.5;entryY=1;entryDx=0;entryDy=0;endArrow=block;endFill=0;strokeWidth=2;" parent="xHhiAaH-M5aRm_jPoFrB-1" source="yhTaDA7iFlD8edd2L2kn-37" target="xHhiAaH-M5aRm_jPoFrB-14" edge="1">
          <mxGeometry relative="1" as="geometry" />
        </mxCell>
        <mxCell id="yhTaDA7iFlD8edd2L2kn-37" value="&lt;&lt;Class&gt;&gt;&#xa;NotificacionInformativa&#xa;" style="swimlane;fontStyle=1;align=center;verticalAlign=top;childLayout=stackLayout;horizontal=1;startSize=50;horizontalStack=0;resizeParent=1;resizeLast=0;collapsible=1;marginBottom=0;rounded=0;shadow=0;strokeWidth=1;" parent="xHhiAaH-M5aRm_jPoFrB-1" vertex="1">
          <mxGeometry x="-280" y="280" width="160" height="140" as="geometry">
            <mxRectangle x="550" y="140" width="160" height="26" as="alternateBounds" />
          </mxGeometry>
        </mxCell>
        <mxCell id="yhTaDA7iFlD8edd2L2kn-38" value="-asunto: String&#xa;-detalle: String&#xa;-categoria:String" style="text;align=left;verticalAlign=top;spacingLeft=4;spacingRight=4;overflow=hidden;rotatable=0;points=[[0,0.5],[1,0.5]];portConstraint=eastwest;rounded=0;shadow=0;html=0;" parent="yhTaDA7iFlD8edd2L2kn-37" vertex="1">
          <mxGeometry y="50" width="160" height="50" as="geometry" />
        </mxCell>
        <mxCell id="yhTaDA7iFlD8edd2L2kn-39" value="" style="line;html=1;strokeWidth=1;align=left;verticalAlign=middle;spacingTop=-1;spacingLeft=3;spacingRight=3;rotatable=0;labelPosition=right;points=[];portConstraint=eastwest;" parent="yhTaDA7iFlD8edd2L2kn-37" vertex="1">
          <mxGeometry y="100" width="160" height="10" as="geometry" />
        </mxCell>
        <mxCell id="yhTaDA7iFlD8edd2L2kn-40" value="+enviarImplementacion():&#xa;" style="text;align=left;verticalAlign=top;spacingLeft=4;spacingRight=4;overflow=hidden;rotatable=0;points=[[0,0.5],[1,0.5]];portConstraint=eastwest;" parent="yhTaDA7iFlD8edd2L2kn-37" vertex="1">
          <mxGeometry y="110" width="160" height="30" as="geometry" />
        </mxCell>
        <mxCell id="yhTaDA7iFlD8edd2L2kn-50" style="edgeStyle=orthogonalEdgeStyle;rounded=0;orthogonalLoop=1;jettySize=auto;html=1;entryX=0.5;entryY=1;entryDx=0;entryDy=0;endArrow=block;endFill=0;strokeWidth=2;" parent="xHhiAaH-M5aRm_jPoFrB-1" source="yhTaDA7iFlD8edd2L2kn-41" target="xHhiAaH-M5aRm_jPoFrB-14" edge="1">
          <mxGeometry relative="1" as="geometry" />
        </mxCell>
        <mxCell id="yhTaDA7iFlD8edd2L2kn-41" value="&lt;&lt;Class&gt;&gt;&#xa;NotificacionRecordatorio&#xa;" style="swimlane;fontStyle=1;align=center;verticalAlign=top;childLayout=stackLayout;horizontal=1;startSize=50;horizontalStack=0;resizeParent=1;resizeLast=0;collapsible=1;marginBottom=0;rounded=0;shadow=0;strokeWidth=1;" parent="xHhiAaH-M5aRm_jPoFrB-1" vertex="1">
          <mxGeometry x="-100" y="280" width="160" height="140" as="geometry">
            <mxRectangle x="550" y="140" width="160" height="26" as="alternateBounds" />
          </mxGeometry>
        </mxCell>
        <mxCell id="yhTaDA7iFlD8edd2L2kn-42" value="-evento: String&#xa;-fecha: String&#xa;" style="text;align=left;verticalAlign=top;spacingLeft=4;spacingRight=4;overflow=hidden;rotatable=0;points=[[0,0.5],[1,0.5]];portConstraint=eastwest;rounded=0;shadow=0;html=0;" parent="yhTaDA7iFlD8edd2L2kn-41" vertex="1">
          <mxGeometry y="50" width="160" height="40" as="geometry" />
        </mxCell>
        <mxCell id="yhTaDA7iFlD8edd2L2kn-43" value="" style="line;html=1;strokeWidth=1;align=left;verticalAlign=middle;spacingTop=-1;spacingLeft=3;spacingRight=3;rotatable=0;labelPosition=right;points=[];portConstraint=eastwest;" parent="yhTaDA7iFlD8edd2L2kn-41" vertex="1">
          <mxGeometry y="90" width="160" height="10" as="geometry" />
        </mxCell>
        <mxCell id="yhTaDA7iFlD8edd2L2kn-44" value="+enviarImplementacion():&#xa;" style="text;align=left;verticalAlign=top;spacingLeft=4;spacingRight=4;overflow=hidden;rotatable=0;points=[[0,0.5],[1,0.5]];portConstraint=eastwest;" parent="yhTaDA7iFlD8edd2L2kn-41" vertex="1">
          <mxGeometry y="100" width="160" height="40" as="geometry" />
        </mxCell>
        <mxCell id="yhTaDA7iFlD8edd2L2kn-51" style="edgeStyle=orthogonalEdgeStyle;rounded=0;orthogonalLoop=1;jettySize=auto;html=1;entryX=0.5;entryY=1;entryDx=0;entryDy=0;endArrow=block;endFill=0;strokeWidth=2;" parent="xHhiAaH-M5aRm_jPoFrB-1" source="yhTaDA7iFlD8edd2L2kn-45" target="xHhiAaH-M5aRm_jPoFrB-14" edge="1">
          <mxGeometry relative="1" as="geometry">
            <Array as="points">
              <mxPoint x="160" y="250" />
              <mxPoint x="-105" y="250" />
            </Array>
          </mxGeometry>
        </mxCell>
        <mxCell id="yhTaDA7iFlD8edd2L2kn-45" value="&lt;&lt;Class&gt;&gt;&#xa;NotificacionPromocional&#xa;" style="swimlane;fontStyle=1;align=center;verticalAlign=top;childLayout=stackLayout;horizontal=1;startSize=50;horizontalStack=0;resizeParent=1;resizeLast=0;collapsible=1;marginBottom=0;rounded=0;shadow=0;strokeWidth=1;" parent="xHhiAaH-M5aRm_jPoFrB-1" vertex="1">
          <mxGeometry x="80" y="280" width="160" height="140" as="geometry">
            <mxRectangle x="550" y="140" width="160" height="26" as="alternateBounds" />
          </mxGeometry>
        </mxCell>
        <mxCell id="yhTaDA7iFlD8edd2L2kn-46" value="-producto: String&#xa;-oferta: String&#xa;-validoHasta:String&#xa;" style="text;align=left;verticalAlign=top;spacingLeft=4;spacingRight=4;overflow=hidden;rotatable=0;points=[[0,0.5],[1,0.5]];portConstraint=eastwest;rounded=0;shadow=0;html=0;" parent="yhTaDA7iFlD8edd2L2kn-45" vertex="1">
          <mxGeometry y="50" width="160" height="50" as="geometry" />
        </mxCell>
        <mxCell id="yhTaDA7iFlD8edd2L2kn-47" value="" style="line;html=1;strokeWidth=1;align=left;verticalAlign=middle;spacingTop=-1;spacingLeft=3;spacingRight=3;rotatable=0;labelPosition=right;points=[];portConstraint=eastwest;" parent="yhTaDA7iFlD8edd2L2kn-45" vertex="1">
          <mxGeometry y="100" width="160" height="10" as="geometry" />
        </mxCell>
        <mxCell id="yhTaDA7iFlD8edd2L2kn-48" value="+enviarImplementacion():&#xa;" style="text;align=left;verticalAlign=top;spacingLeft=4;spacingRight=4;overflow=hidden;rotatable=0;points=[[0,0.5],[1,0.5]];portConstraint=eastwest;" parent="yhTaDA7iFlD8edd2L2kn-45" vertex="1">
          <mxGeometry y="110" width="160" height="20" as="geometry" />
        </mxCell>
        <mxCell id="yhTaDA7iFlD8edd2L2kn-53" style="edgeStyle=orthogonalEdgeStyle;rounded=0;orthogonalLoop=1;jettySize=auto;html=1;startArrow=diamondThin;startFill=0;endArrow=open;endFill=0;strokeWidth=2;" parent="xHhiAaH-M5aRm_jPoFrB-1" source="xHhiAaH-M5aRm_jPoFrB-15" target="yhTaDA7iFlD8edd2L2kn-0" edge="1">
          <mxGeometry relative="1" as="geometry">
            <Array as="points">
              <mxPoint x="270" y="115" />
              <mxPoint x="270" y="530" />
            </Array>
          </mxGeometry>
        </mxCell>
        <mxCell id="yhTaDA7iFlD8edd2L2kn-56" style="edgeStyle=orthogonalEdgeStyle;rounded=0;orthogonalLoop=1;jettySize=auto;html=1;" parent="xHhiAaH-M5aRm_jPoFrB-1" source="yhTaDA7iFlD8edd2L2kn-54" target="xHhiAaH-M5aRm_jPoFrB-14" edge="1">
          <mxGeometry relative="1" as="geometry" />
        </mxCell>
        <mxCell id="yhTaDA7iFlD8edd2L2kn-54" value="Client" style="html=1;whiteSpace=wrap;" parent="xHhiAaH-M5aRm_jPoFrB-1" vertex="1">
          <mxGeometry x="-460" y="105" width="110" height="50" as="geometry" />
        </mxCell>
      </root>
    </mxGraphModel>
  </diagram>
</mxfile>
